<svg version="1.1" xmlns="http://www.w3.org/2000/svg" width="128" height="128" viewBox="0, 0, 128, 128">
  <path id="path-1" d="M 67.67296551724138 10.979310344827587 C 72.5431724137931 10.936551724137933 77.35779310344827 10.957931034482755 82.21089655172415 11.406896551724138 C 88.92399999999999 13.71586206896552 93.46924137931035 16.136000000000003 98.03158620689655 18.675862068965518 C 100.34482758620689 20.463172413793107 101.20855172413793 21.22427586206897 102.30744827586207 22.25903448275862 C 103.37213793103449 23.251034482758616 104.42399999999999 24.217379310344832 105.56137931034483 25.12386206896551 C 114.34827586206896 32.20041379310345 119.94537931034483 45.455586206896555 121.23241379310345 56.401793103448284 C 121.31365517241379 57.32110344827586 121.36924137931034 58.24041379310345 121.41627586206897 59.164 C 121.43337931034483 59.49324137931034 121.44620689655173 59.82675862068966 121.46331034482759 60.16882758620691 C 121.89944827586207 70.89268965517242 119.19710344827587 82.05268965517243 112.99710344827587 90.93793103448276 C 112.8175172413793 91.25434482758621 112.64220689655174 91.57075862068967 112.45834482758622 91.89572413793104 C 111.51765517241381 93.38800000000002 110.41448275862068 94.68358620689655 109.25572413793104 96.0176551724138 C 109.0248275862069 96.28275862068966 108.79393103448277 96.54786206896553 108.5544827586207 96.82579310344828 C 103.65862068965517 102.43572413793103 98.09144827586206 106.54910344827586 91.61779310344828 110.1793103448276 C 91.2329655172414 110.39737931034483 90.85241379310344 110.6111724137931 90.45903448275864 110.8335172413793 C 85.35365517241381 113.54868965517242 79.76082758620689 114.57489655172414 74.08675862068965 115.3103448275862 C 73.60786206896552 115.37448275862069 73.13324137931033 115.44289655172415 72.64151724137932 115.50703448275864 C 70.93972413793104 115.63958620689655 69.8793103448276 115.70372413793102 68.5153103448276 114.61765517241379 C 67.48910344827587 113.38193103448276 66.84344827586207 112.41558620689656 66.76220689655173 110.79503448275862 C 67.00165517241379 110.2776551724138 67.00165517241379 110.2776551724138 67.24537931034483 109.75172413793103 C 67.45062068965518 109.25144827586209 67.6601379310345 108.7511724137931 67.86965517241379 108.23379310344828 C 68.44262068965517 107.2503448275862 68.74620689655171 106.83986206896552 69.81944827586207 106.42937931034484 C 70.91406896551723 106.24551724137932 71.99158620689656 106.14289655172415 73.09903448275863 106.06593103448276 C 73.91144827586206 105.97613793103447 74.72386206896552 105.88206896551725 75.53627586206896 105.78800000000001 C 75.93820689655172 105.73668965517243 76.34441379310344 105.6896551724138 76.76344827586206 105.64262068965517 C 85.10565517241379 104.4624827586207 93.06731034482759 99.95572413793106 98.88675862068966 93.93103448275862 C 99.18179310344827 93.65737931034484 99.48110344827586 93.38800000000002 99.7889655172414 93.10579310344828 C 106.86124137931034 86.4953103448276 111.98372413793103 75.99379310344828 112.64220689655174 66.32606896551724 C 112.66786206896553 65.21862068965518 112.66786206896553 64.11972413793103 112.65075862068966 63.01227586206897 C 112.64648275862069 62.618896551724134 112.64220689655174 62.22551724137931 112.63793103448275 61.81931034482759 C 112.6208275862069 60.69475862068965 112.59517241379311 59.56593103448276 112.56951724137932 58.44137931034483 C 112.56096551724139 57.924000000000014 112.55241379310344 57.41089655172414 112.54813793103447 56.88068965517241 C 112.28303448275862 50.7576551724138 109.98689655172413 45.22468965517242 107.29737931034484 39.80289655172414 C 105.09958620689655 36.655862068965526 104.89434482758621 36.249655172413796 104.68482758620691 35.834896551724135 C 103.37213793103449 33.53875862068965 101.55489655172414 31.700137931034487 99.74193103448276 29.793103448275865 C 92.5926896551724 22.35310344827586 84.30179310344828 17.71806896551724 75.532 16.53793103448276 C 73.38124137931035 16.23006896551724 72.47475862068967 15.716965517241386 71.09365517241379 13.972413793103449 C 70.64896551724138 13.579034482758626 70.19144827586206 13.19848275862069 69.7296551724138 12.822206896551725 C 68.52813793103448 11.83448275862069 68.52813793103448 11.83448275862069 67.67296551724138 10.979310344827587 Z" fill="#48FAC7" />
  <path id="path-2" d="M 43.487620689655174 24.58189655172414 C 44.58224137931035 24.663137931034484 44.58224137931035 24.663137931034484 45.43741379310345 25.518310344827587 C 45.544310344827586 26.587275862068967 45.544310344827586 26.587275862068967 45.43741379310345 27.656241379310345 C 45.155206896551725 27.93844827586207 44.873000000000005 28.22065517241379 44.58224137931035 28.511413793103447 C 44.158931034482755 28.511413793103447 43.73562068965518 28.511413793103447 43.29948275862069 28.511413793103447 C 43.22251724137931 29.2126551724138 43.22251724137931 29.2126551724138 43.141275862068966 29.926724137931036 C 42.859068965517245 32.18010344827587 42.44003448275863 34.403551724137934 42.016724137931035 36.63555172413793 C 41.66182758620689 36.64837931034483 41.30693103448276 36.66548275862069 40.939206896551724 36.68258620689656 C 40.24224137931034 36.72534482758621 40.24224137931034 36.72534482758621 39.532448275862066 36.768103448275866 C 39.07065517241379 36.79375862068966 38.60886206896552 36.81941379310345 38.13424137931034 36.84506896551724 C 36.77024137931034 37.080241379310344 36.47948275862069 37.341068965517245 35.60293103448276 38.34589655172414 C 34.452724137931035 38.42713793103448 34.452724137931035 38.42713793103448 33.465 38.34589655172414 C 33.36237931034482 38.6238275862069 33.25548275862069 38.90603448275862 33.14431034482759 39.19679310344828 C 32.468724137931034 40.82162068965517 31.690517241379307 42.386586206896546 30.89948275862069 43.9558275862069 C 30.672862068965518 44.417620689655166 30.672862068965518 44.417620689655166 30.43768965517241 44.88368965517241 C 30.29231034482758 45.17872413793104 30.14265517241379 45.473758620689665 29.993 45.777344827586205 C 29.860448275862066 46.04244827586207 29.723620689655174 46.311827586206896 29.58679310344828 46.58548275862069 C 28.539206896551722 48.53955172413794 28.539206896551722 48.53955172413794 27.128172413793106 49.0141724137931 C 26.662103448275865 49.11679310344827 26.19603448275862 49.219413793103456 25.717137931034483 49.330586206896555 C 25.246793103448276 49.43748275862069 24.780724137931035 49.54437931034483 24.297551724137932 49.65555172413793 C 23.934103448275867 49.73251724137931 23.57493103448276 49.80948275862069 23.20293103448276 49.89072413793104 C 23.121689655172414 50.19858620689655 23.040448275862072 50.51072413793103 22.954931034482755 50.827137931034486 C 22.843758620689655 51.24189655172414 22.732586206896553 51.65665517241379 22.61713793103448 52.079965517241384 C 22.505965517241382 52.4861724137931 22.399068965517245 52.896655172413794 22.28362068965517 53.31568965517241 C 22.104034482758625 53.948517241379314 22.104034482758625 53.948517241379314 21.920172413793104 54.5941724137931 C 21.78762068965517 55.26120689655173 21.78762068965517 55.26120689655173 21.655068965517238 55.941068965517246 C 20.945275862068964 57.40768965517241 20.2098275862069 57.7326551724138 18.709000000000003 58.29706896551724 C 18.26431034482758 58.446724137931035 18.26431034482758 58.446724137931035 17.806793103448275 58.600655172413795 C 17.503206896551717 58.711827586206894 17.199620689655177 58.82299999999999 16.891758620689657 58.93844827586207 C 16.147758620689658 59.20782758620691 15.399482758620689 59.4686551724138 14.651206896551724 59.725206896551725 C 14.792310344827579 60.57182758620691 14.933413793103446 61.418448275862076 15.078793103448275 62.290724137931036 C 15.429413793103445 62.128241379310346 15.780034482758614 61.97003448275862 16.143482758620692 61.80755172413794 C 16.601 61.60658620689656 17.06279310344827 61.401344827586215 17.537413793103447 61.19610344827586 C 17.994931034482754 60.99086206896552 18.45244827586206 60.78562068965518 18.922793103448278 60.576103448275866 C 20.239758620689653 60.13996551724138 20.684448275862074 60.00313793103449 21.920172413793104 60.58037931034483 C 22.805275862068964 61.247413793103455 22.805275862068964 61.247413793103455 23.686103448275862 62.05127586206897 C 24.12224137931035 62.4446551724138 24.12224137931035 62.4446551724138 24.57120689655172 62.85086206896552 C 26.14044827586207 64.32175862068965 26.456862068965524 65.04865517241379 26.64927586206897 67.17375862068967 C 26.606517241379315 69.16631034482758 25.91810344827586 70.88093103448276 25.182655172413792 72.711 C 25.02872413793103 73.10437931034484 24.879068965517238 73.50203448275862 24.720862068965523 73.90824137931035 C 23.55782758620689 76.76451724137932 22.219482758620686 78.83831034482759 19.99175862068966 80.99334482758621 C 19.782241379310346 81.31403448275863 19.572724137931033 81.63044827586205 19.354655172413793 81.95968965517241 C 19.628310344827582 83.35362068965517 19.628310344827582 83.35362068965517 20.2098275862069 84.52520689655172 C 20.47493103448276 84.12327586206897 20.740034482758624 83.72134482758621 21.013689655172413 83.30658620689657 C 23.891344827586213 79.283 23.891344827586213 79.283 25.76844827586207 78.70148275862068 C 27.645551724137924 78.47913793103449 29.46279310344827 78.67155172413794 31.327068965517242 78.96658620689655 C 31.54513793103448 79.39844827586207 31.54513793103448 79.39844827586207 31.76748275862069 79.84313793103449 C 32.91341379310345 82.04093103448277 34.0721724137931 83.94368965517243 35.7098275862069 85.80796551724139 C 37.467206896551716 87.93306896551724 38.206931034482764 89.87858620689657 38.16844827586207 92.6493448275862 C 37.87768965517241 93.92355172413792 37.467206896551716 94.8813448275862 36.88568965517241 96.07003448275863 C 37.16789655172414 96.07003448275863 37.45010344827586 96.07003448275863 37.74086206896552 96.07003448275863 C 38.309551724137926 98.39610344827587 38.309551724137926 98.39610344827587 37.68955172413793 99.43513793103449 C 36.65906896551724 100.05513793103448 35.9321724137931 100.01237931034481 34.74775862068965 99.91831034482759 C 34.53824137931034 101.61155172413793 34.53824137931034 101.61155172413793 34.3201724137931 103.339 C 32.44734482758621 103.13803448275864 31.305689655172408 101.89803448275862 29.993 100.66658620689655 C 29.625275862068957 100.32024137931035 29.625275862068957 100.32024137931035 29.248999999999995 99.97389655172414 C 25.242517241379304 96.13417241379312 21.99286206896551 91.53334482758623 19.354655172413793 86.66313793103448 C 19.354655172413793 86.38093103448276 19.354655172413793 86.09872413793104 19.354655172413793 85.80796551724139 C 18.948448275862074 85.82506896551725 18.54224137931034 85.8421724137931 18.127482758620687 85.85927586206897 C 16.78913793103448 85.80796551724139 16.78913793103448 85.80796551724139 15.93396551724138 84.95279310344829 C 16.019482758620683 84.17458620689656 16.019482758620683 84.17458620689656 16.229 83.18686206896552 C 16.65231034482759 79.87734482758621 15.275482758620681 76.91844827586206 14.223620689655172 73.83555172413793 C 13.171758620689651 70.355 13.11189655172413 66.75472413793103 12.940862068965517 63.14589655172414 C 12.376448275862066 63.004793103448286 11.81203448275862 62.863689655172415 11.23051724137931 62.718310344827586 C 10.93548275862069 61.730586206896554 10.93548275862069 61.730586206896554 10.802931034482757 60.58037931034483 C 11.363068965517243 59.80644827586207 11.363068965517243 59.80644827586207 12.085689655172413 59.297620689655176 C 12.367896551724137 59.297620689655176 12.650103448275859 59.297620689655176 12.940862068965517 59.297620689655176 C 12.923758620689647 58.78451724137932 12.9066551724138 58.27568965517242 12.88955172413793 57.745482758620696 C 12.932310344827593 47.92810344827586 16.896034482758623 37.57624137931034 22.775344827586206 29.794172413793103 C 23.651896551724143 29.91389655172414 24.524172413793107 30.04217241379311 25.396448275862067 30.166172413793106 C 25.87962068965517 30.23458620689655 26.367068965517245 30.307275862068963 26.867344827586205 30.37568965517242 C 30.55313793103448 31.055551724137928 30.55313793103448 31.055551724137928 31.52375862068966 32.30410344827587 C 31.656310344827578 32.60341379310344 31.78458620689655 32.90272413793104 31.917137931034482 33.214862068965516 C 32.11810344827586 33.66382758620691 32.11810344827586 33.66382758620691 32.32762068965518 34.121344827586206 C 32.6098275862069 34.92520689655173 32.6098275862069 34.92520689655173 32.6098275862069 35.78037931034483 C 32.89203448275862 35.78037931034483 33.174241379310345 35.78037931034483 33.465 35.78037931034483 C 33.465 35.49817241379311 33.465 35.215965517241386 33.465 34.92520689655173 C 33.747206896551724 34.78410344827587 34.029413793103444 34.643 34.3201724137931 34.49762068965517 C 34.063620689655174 32.9198275862069 33.781413793103454 31.35486206896552 33.465 29.794172413793103 C 36.23575862068965 27.84865517241379 38.788448275862066 26.125482758620695 42.016724137931035 25.090724137931034 C 42.444310344827585 24.663137931034484 42.444310344827585 24.663137931034484 43.487620689655174 24.58189655172414 Z" fill="#6366f1" />
  <path id="path-3" d="M 63.62926939655173 7.112661637931034 C 64.97616594827586 7.104109913793105 66.3230625 7.112661637931034 67.6742349137931 7.129765086206899 C 66.84899353448276 8.425351293103446 66.10926939655172 9.562730603448273 64.97189008620688 10.606040948275858 C 64.73671767241379 10.87114439655172 64.49726939655173 11.136247844827585 64.2535452586207 11.40562715517241 C 64.41175215517242 12.773903017241384 64.89920043103449 13.496523706896555 65.84416594827587 14.471420258620693 C 66.0750625 14.710868534482763 66.30595905172413 14.954592672413796 66.54113146551725 15.2025926724138 C 66.90457974137931 15.57031681034483 66.90457974137931 15.57031681034483 67.27230387931033 15.950868534482765 C 69.81216594827586 18.567696120689654 69.81216594827586 18.567696120689654 69.81216594827586 19.529765086206893 C 69.33754525862071 19.551144396551727 68.85864870689656 19.572523706896547 68.37120043103448 19.59390301724138 C 65.2327176724138 19.747834051724144 62.17975215517242 19.897489224137935 59.11395905172414 20.641489224137928 C 58.26733836206897 20.81252370689655 58.26733836206897 20.81252370689655 56.556993534482764 20.81252370689655 C 55.821545258620695 20.119834051724144 55.11602801724138 19.405765086206898 54.4190625 18.67459267241379 C 52.86692456896551 17.421765086206904 51.25920043103448 16.280109913793105 49.57878663793103 15.2025926724138 C 48.49271767241379 14.4457650862069 47.859890086206896 13.795834051724137 47.150096982758626 12.688385775862066 C 46.444579741379314 12.970592672413789 45.739062499999996 13.252799568965523 45.012165948275864 13.543558189655169 C 45.341407327586204 13.941213362068966 45.341407327586204 13.941213362068966 45.67920043103449 14.347420258620698 C 46.95768318965517 17.131006465517245 45.85023491379311 20.141213362068967 45.012165948275864 22.950454741379307 C 44.6230625 22.93335129310345 44.233959051724135 22.91624784482759 43.83202801724138 22.894868534482757 C 39.868303879310346 22.903420258620695 37.52940732758621 23.685903017241376 34.40375215517241 26.157351293103446 C 32.616441810344824 27.538454741379315 31.53037284482759 27.919006465517242 29.191476293103438 27.653903017241376 C 28.148165948275853 27.448661637931036 27.211752155172405 27.132247844827585 26.198372844827578 26.798730603448274 C 28.15244181034483 20.910868534482763 36.28085560344827 16.13045474137931 41.450372844827584 13.180109913793103 C 42.44664870689655 12.688385775862066 42.44664870689655 12.688385775862066 43.30182112068966 12.688385775862066 C 43.2847176724138 12.282178879310347 43.26333836206897 11.88024784482759 43.246234913793096 11.46121336206896 C 43.30182112068966 10.122868534482755 43.30182112068966 10.122868534482755 44.156993534482766 9.267696120689653 C 45.23451077586206 9.413075431034482 46.25644181034483 9.68673060344828 47.30830387931034 9.960385775862068 C 48.55257974137931 10.139971982758626 49.24954525862069 9.99886853448276 50.43823491379311 9.618316810344833 C 50.81451077586207 9.502868534482761 51.186510775862075 9.387420258620686 51.57133836206897 9.271971982758625 C 51.96471767241379 9.147971982758616 52.35809698275862 9.02397198275862 52.760028017241375 8.89569612068965 C 56.46292456896552 7.783971982758618 59.75961422413793 7.159696120689655 63.62926939655173 7.112661637931034 Z" fill="#c7d2fe" />
  <path id="path-4" d="M 31.328137931034483 78.96551724137932 C 31.54620689655172 79.40165517241378 31.54620689655172 79.40165517241378 31.768551724137932 79.84206896551726 C 32.91448275862069 82.03986206896552 34.06896551724138 83.94689655172414 35.71089655172413 85.80689655172414 C 37.46827586206897 87.93200000000002 38.208 89.87751724137931 38.16951724137931 92.64827586206897 C 37.87875862068965 93.9224827586207 37.46827586206897 94.88455172413795 36.886758620689655 96.06896551724138 C 37.168965517241375 96.06896551724138 37.4511724137931 96.06896551724138 37.74193103448276 96.06896551724138 C 38.31062068965517 98.39931034482758 38.31062068965517 98.39931034482758 37.69062068965517 99.4383448275862 C 36.65586206896552 100.05406896551725 35.92896551724138 100.0113103448276 34.7488275862069 99.91724137931035 C 34.60772413793103 101.04606896551724 34.46662068965517 102.17489655172413 34.321241379310344 103.33793103448276 C 32.44413793103449 103.13696551724138 31.30675862068965 101.89696551724138 29.989793103448278 100.66551724137932 C 29.746068965517246 100.43462068965516 29.502344827586203 100.20800000000001 29.250068965517237 99.9728275862069 C 26.778620689655178 97.60827586206898 24.71765517241379 95.02993103448276 22.776413793103448 92.22068965517242 C 22.60110344827586 91.97268965517243 22.43006896551724 91.72468965517241 22.250482758620695 91.46813793103449 C 21.737379310344824 90.72841379310344 21.237103448275864 89.98013793103448 20.745379310344827 89.22758620689656 C 20.45462068965517 88.78717241379312 20.168137931034487 88.34675862068966 19.86882758620689 87.89351724137931 C 19.355724137931034 86.66206896551725 19.355724137931034 86.66206896551725 19.56951724137931 85.6144827586207 C 22.712275862068964 80.26110344827586 24.94 77.95641379310345 31.328137931034483 78.96551724137932 Z" fill="#4338ca" />
  <path id="path-5" d="M 40.30744827586207 93.50344827586207 C 42.28289655172414 94.49117241379311 44.258344827586214 95.47889655172415 46.29365517241379 96.49655172413793 C 46.85806896551724 96.07324137931035 47.42248275862068 95.64993103448276 48.004 95.21379310344828 C 49.28675862068965 95.32924137931035 49.641655172413785 95.5686896551724 50.56951724137931 96.49655172413793 C 50.633655172413796 96.91986206896553 50.633655172413796 96.91986206896553 50.697793103448284 97.34744827586208 C 50.92441379310344 98.30951724137933 50.92441379310344 98.30951724137933 51.96344827586206 98.72 C 52.36537931034482 98.84827586206897 52.77158620689656 98.9808275862069 53.19062068965517 99.11765517241379 C 53.78496551724138 99.3143448275862 53.78496551724138 99.3143448275862 54.39641379310344 99.51958620689655 C 54.824 99.65213793103449 55.25586206896552 99.78041379310346 55.70055172413793 99.91724137931035 C 56.38896551724139 100.13958620689655 56.38896551724139 100.13958620689655 57.09020689655173 100.36620689655173 C 59.03572413793104 100.85793103448276 60.947034482758625 101.06744827586208 62.943862068965515 101.25558620689655 C 63.31586206896552 101.28979310344828 63.69213793103448 101.32827586206898 64.07696551724138 101.36675862068965 C 64.98772413793102 101.45655172413795 65.90275862068967 101.54206896551725 66.81779310344828 101.62758620689655 C 66.1208275862069 103.5944827586207 65.09889655172414 105.28344827586209 64.0128275862069 107.0536551724138 C 62.79420689655173 109.012 62.79420689655173 109.012 61.68675862068966 111.0344827586207 C 59.805379310344826 111.59462068965517 58.43282758620689 111.64593103448277 56.55572413793104 111.0344827586207 C 54.13131034482758 108.87517241379311 52.36110344827586 106.01889655172414 50.56951724137931 103.33793103448276 C 50.38565517241379 103.08137931034483 50.20606896551725 102.82482758620691 50.017931034482764 102.55972413793104 C 49.214068965517235 101.4223448275862 48.859172413793104 100.91779310344828 48.859172413793104 99.4896551724138 C 48.63682758620689 99.4383448275862 48.41875862068966 99.38275862068966 48.19213793103448 99.33144827586207 C 47.39255172413793 99.12620689655172 46.60151724137931 98.89958620689656 45.81475862068965 98.66013793103448 C 43.860689655172415 98.09572413793104 41.87241379310345 97.72800000000001 39.879862068965515 97.35172413793104 C 40.020965517241386 96.08179310344826 40.16206896551724 94.81186206896552 40.30744827586207 93.50344827586207 Z" fill="#4f46e5" />
  <path id="path-6" d="M 37.74193103448276 100.3448275862069 C 38.383310344827585 100.33200000000002 39.024689655172416 100.32344827586206 39.66606896551724 100.31917241379311 C 40.025241379310344 100.31489655172415 40.380137931034476 100.30634482758622 40.74786206896552 100.30206896551724 C 41.376413793103445 100.32344827586206 41.376413793103445 100.32344827586206 42.01779310344828 100.3448275862069 C 42.56937931034482 100.34055172413794 43.11668965517241 100.33627586206897 43.68537931034483 100.33200000000002 C 45.29737931034484 100.55006896551726 45.95586206896552 101.14441379310345 46.990620689655174 102.37586206896552 C 47.499448275862065 103.05572413793102 47.99544827586207 103.73986206896552 48.487172413793104 104.43255172413794 C 48.73517241379311 104.77034482758623 48.9831724137931 105.10813793103448 49.23972413793103 105.45448275862068 C 49.731448275862064 106.12579310344827 50.2231724137931 106.79710344827586 50.70634482758621 107.47696551724138 C 51.6128275862069 108.72979310344829 52.57062068965518 109.94413793103449 53.53268965517242 111.1584827586207 C 53.990206896551726 111.8896551724138 53.990206896551726 111.8896551724138 53.990206896551726 113.17241379310346 C 47.81158620689656 112.0008275862069 42.663448275862066 109.52082758620689 37.31434482758621 106.33103448275862 C 37.29724137931035 104.26151724137932 37.33572413793104 102.38441379310345 37.74193103448276 100.3448275862069 Z" fill="#4338ca" />
  <path id="path-7" d="M 49.28675862068965 18.248275862068965 C 49.637379310344826 18.539034482758623 49.99227586206897 18.82979310344828 50.355724137931034 19.129103448275863 C 52.05751724137931 20.292137931034485 53.310344827586206 19.855999999999998 55.27296551724138 19.53103448275862 C 56.12813793103448 20.386206896551727 56.12813793103448 20.386206896551727 56.26068965517241 21.66896551724138 C 56.21793103448276 22.09227586206897 56.17517241379311 22.515586206896547 56.12813793103448 22.951724137931034 C 54.84537931034483 23.80689655172414 54.84537931034483 23.80689655172414 54.01586206896552 23.64868965517241 C 53.72510344827586 23.558896551724132 53.4343448275862 23.469103448275867 53.13503448275862 23.379310344827587 C 51.33917241379311 23.379310344827587 50.55668965517241 23.691448275862065 48.966068965517245 24.448275862068968 C 48.547034482758626 24.644965517241385 48.123724137931035 24.845931034482764 47.69186206896552 25.051172413793104 C 47.37117241379311 25.205103448275867 47.050482758620696 25.35903448275862 46.72124137931034 25.517241379310345 C 47.43103448275862 23.011586206896546 48.20496551724138 20.61710344827586 49.28675862068965 18.248275862068965 Z" fill="#c7d2fe" />
  <path id="path-9" d="M 27.052275862068964 51.6 C 27.48413793103448 52.89558620689655 27.48413793103448 53.46427586206897 27.334482758620688 54.78551724137931 C 27.295999999999996 55.148965517241386 27.253241379310342 55.50813793103448 27.214758620689654 55.884413793103455 C 27.146344827586205 56.4488275862069 27.146344827586205 56.4488275862069 27.07793103448276 57.02606896551724 C 27.035172413793106 57.40662068965518 26.992413793103452 57.78717241379311 26.949655172413788 58.18055172413793 C 26.84275862068965 59.12551724137931 26.735862068965513 60.06620689655173 26.624689655172414 61.00689655172414 C 25.63696551724138 60.16027586206897 24.649241379310343 59.313655172413796 23.63158620689655 58.44137931034483 C 24.414068965517245 53.712275862068964 24.414068965517245 53.712275862068964 25.769517241379308 52.02758620689655 C 26.1928275862069 51.88648275862069 26.616137931034476 51.74537931034483 27.052275862068964 51.6 Z" fill="#6366f1" />
  <path id="path-10" d="M 40.30744827586207 93.50344827586207 C 42.42399999999999 94.63227586206897 44.540551724137934 95.76110344827586 46.72124137931034 96.9241379310345 C 46.29793103448276 97.5569655172414 46.29793103448276 97.5569655172414 45.86606896551724 98.20689655172414 C 41.84248275862069 97.79641379310347 41.84248275862069 97.79641379310347 39.879862068965515 97.35172413793104 C 40.020965517241386 96.08179310344826 40.16206896551724 94.81186206896552 40.30744827586207 93.50344827586207 Z M 47.1488275862069 95.64137931034483 C 47.43103448275862 95.78248275862069 47.71324137931034 95.92358620689657 48.004 96.06896551724138 C 47.37117241379311 96.49227586206898 47.37117241379311 96.49227586206898 46.72124137931034 96.9241379310345 C 46.86234482758621 96.5008275862069 47.00344827586207 96.07751724137931 47.1488275862069 95.64137931034483 Z" fill="#6366f1" />
  <path id="path-27" d="M 28.762620689655172 107.61379310344829 C 29.887172413793103 107.77627586206897 29.887172413793103 107.77627586206897 30.90055172413793 108.04137931034484 C 31.169931034482758 109.05903448275862 31.169931034482758 109.05903448275862 31.328137931034483 110.1793103448276 C 31.04593103448276 110.46151724137933 30.763724137931035 110.74372413793104 30.47296551724138 111.0344827586207 C 29.352689655172412 110.87627586206897 29.352689655172412 110.87627586206897 28.33503448275862 110.60689655172415 C 28.065655172413795 109.59351724137932 28.065655172413795 109.59351724137932 27.90744827586207 108.46896551724139 C 28.18965517241379 108.18675862068964 28.471862068965514 107.90455172413795 28.762620689655172 107.61379310344829 Z" fill="#818cf8" />
  <path id="path-28" d="M 52.36003448275862 87.65086206896552 C 52.74486206896552 87.79624137931035 52.74486206896552 87.79624137931035 53.13396551724138 87.94589655172415 C 53.40334482758621 88.95927586206898 53.40334482758621 88.95927586206898 53.561551724137935 90.0838275862069 C 53.27934482758621 90.36603448275864 52.99713793103449 90.64824137931035 52.70637931034483 90.93900000000001 C 51.586103448275864 90.77651724137931 51.586103448275864 90.77651724137931 50.56844827586207 90.51141379310346 C 50.27341379310345 89.73748275862069 50.27341379310345 89.73748275862069 50.14086206896552 88.80106896551725 C 50.82927586206896 87.75348275862069 51.0986551724138 87.47127586206896 52.36003448275862 87.65086206896552 Z" fill="#a5b4fc" />
  <path id="path-29" d="M 39.452275862068966 78.11034482758622 C 40.51268965517241 78.5336551724138 40.51268965517241 78.5336551724138 41.59020689655173 78.96551724137932 C 41.60731034482758 79.67958620689656 41.60731034482758 80.38937931034482 41.59020689655173 81.10344827586208 C 41.16262068965517 81.53103448275863 41.16262068965517 81.53103448275863 40.11931034482759 81.61227586206897 C 39.024689655172416 81.53103448275863 39.024689655172416 81.53103448275863 38.16951724137931 80.67586206896551 C 38.327724137931035 79.42303448275862 38.53724137931035 79.02537931034483 39.452275862068966 78.11034482758622 Z" fill="#6366f1" />
  <path id="path-30" d="M 39.024689655172416 51.17241379310345 C 39.743034482758624 51.29641379310345 40.4528275862069 51.43751724137932 41.16262068965517 51.6 C 41.30372413793104 52.30551724137931 41.4448275862069 53.011034482758625 41.59020689655173 53.73793103448276 C 40.60248275862069 54.22110344827586 40.60248275862069 54.22110344827586 39.452275862068966 54.59310344827586 C 39.028965517241375 54.31089655172414 38.6056551724138 54.02868965517242 38.16951724137931 53.73793103448276 C 38.54151724137931 51.65558620689655 38.54151724137931 51.65558620689655 39.024689655172416 51.17241379310345 Z" fill="#a5b4fc" />
  <path id="path-31" d="M 31.755724137931033 64.42758620689656 C 31.8968275862069 65.41531034482759 32.03793103448275 66.40303448275863 32.18331034482759 67.42068965517242 C 31.19558620689655 67.42068965517242 30.207862068965515 67.42068965517242 29.190206896551725 67.42068965517242 C 29.190206896551725 66.57406896551724 29.190206896551725 65.72744827586209 29.190206896551725 64.8551724137931 C 30.045379310344828 64.42758620689656 30.045379310344828 64.42758620689656 31.755724137931033 64.42758620689656 Z" fill="#818cf8" />
  <path id="path-33" d="M 27.90744827586207 72.12413793103448 C 28.976413793103447 73.38124137931035 29.391172413793104 74.33903448275862 29.617793103448275 75.97241379310346 C 28.488965517241386 75.97241379310346 27.360137931034483 75.97241379310346 26.19710344827586 75.97241379310346 C 26.761517241379305 74.70248275862068 27.325931034482753 73.43255172413794 27.90744827586207 72.12413793103448 Z" fill="#4f46e5" />
  <path id="path-34" d="M 69.81089655172414 24.23448275862069 C 70.96110344827586 24.610758620689655 70.96110344827586 24.610758620689655 71.9488275862069 25.089655172413796 C 71.80772413793105 25.795172413793107 71.66662068965516 26.50068965517242 71.52124137931035 27.227586206896554 C 70.50786206896552 27.120689655172416 70.50786206896552 27.120689655172416 69.38331034482758 26.8 C 68.8231724137931 25.919172413793103 68.8231724137931 25.919172413793103 68.52813793103448 25.089655172413796 C 68.95144827586208 24.807448275862072 69.37475862068966 24.525241379310348 69.81089655172414 24.23448275862069 Z" fill="#e0e7ff" />
  <path id="path-35" d="M 74.08675862068965 2 C 74.75379310344827 2.5344827586206895 74.75379310344827 2.5344827586206895 75.36951724137931 3.2827586206896555 C 75.34386206896552 4.163586206896553 75.34386206896552 4.163586206896553 74.94193103448276 4.993103448275862 C 74.06110344827586 5.527586206896552 74.06110344827586 5.527586206896552 73.23158620689655 5.848275862068966 C 72.94937931034482 5.2838620689655205 72.66717241379311 4.719448275862069 72.37641379310345 4.137931034482759 C 72.9408275862069 3.432413793103446 73.50524137931033 2.7268965517241393 74.08675862068965 2 Z" fill="#e0e7ff" />
  <path id="path-36" d="M 18.92813793103448 97.35172413793104 C 19.5951724137931 97.88620689655173 19.5951724137931 97.88620689655173 20.210896551724137 98.63448275862069 C 20.078344827586207 99.57089655172415 20.078344827586207 99.57089655172415 19.783310344827584 100.3448275862069 C 19.21889655172414 100.48593103448276 18.654482758620695 100.62703448275863 18.07296551724138 100.77241379310345 C 17.790758620689658 100.20800000000001 17.50855172413793 99.64358620689656 17.217793103448273 99.06206896551724 C 17.78220689655172 98.4976551724138 18.34662068965517 97.93324137931036 18.92813793103448 97.35172413793104 Z" fill="#818cf8" />
  <path id="path-37" d="M 52.70744827586207 116.16551724137932 C 52.98965517241379 116.44772413793105 53.27186206896552 116.72993103448276 53.562620689655176 117.02068965517242 C 53.404413793103444 118.14524137931035 53.404413793103444 118.14524137931035 53.13503448275862 119.15862068965518 C 52.57062068965518 119.29972413793104 52.00620689655173 119.44082758620691 51.424689655172415 119.58620689655173 C 51.142482758620694 119.02179310344829 50.86027586206897 118.45737931034483 50.56951724137931 117.87586206896552 C 51.27503448275862 117.31144827586208 51.98055172413794 116.74703448275864 52.70744827586207 116.16551724137932 Z" fill="#4f46e5" />
  <path id="path-38" d="M 61.15227586206897 113.57327586206897 C 61.49434482758621 113.57755172413793 61.836413793103446 113.5818275862069 62.18703448275862 113.58610344827585 C 62.44786206896552 113.59037931034484 62.70441379310345 113.59465517241381 62.969517241379314 113.59893103448276 C 63.11062068965518 114.02224137931036 63.251724137931035 114.44555172413794 63.397103448275864 114.88168965517242 C 62.72151724137931 114.90734482758621 62.0416551724138 114.92444827586209 61.36606896551724 114.93727586206897 C 60.98979310344828 114.94582758620689 60.61351724137931 114.95437931034485 60.22441379310345 114.96720689655173 C 59.07420689655172 114.87741379310346 58.39434482758621 114.61231034482759 57.410896551724136 114.02651724137932 C 58.68937931034483 113.65451724137931 59.82248275862069 113.55189655172414 61.15227586206897 113.57327586206897 Z" fill="#a5b4fc" />
  <path id="path-39" d="M 45.01089655172414 87.0896551724138 C 45.15200000000001 87.51296551724138 45.29310344827586 87.93627586206898 45.43848275862069 88.37241379310345 C 44.15572413793104 89.22758620689656 44.15572413793104 89.22758620689656 43.21931034482759 89.06937931034483 C 42.96275862068966 88.97958620689656 42.71048275862069 88.88979310344827 42.445379310344826 88.80000000000001 C 42.30427586206896 88.23558620689656 42.163172413793106 87.67117241379312 42.01779310344828 87.0896551724138 C 43.343310344827586 86.64924137931035 43.753793103448274 86.58510344827586 45.01089655172414 87.0896551724138 Z" fill="#818cf8" />
  <path id="path-40" d="M 39.879862068965515 117.87586206896552 C 40.72648275862068 117.87586206896552 41.573103448275866 117.87586206896552 42.445379310344826 117.87586206896552 C 42.445379310344826 118.58137931034483 42.445379310344826 119.28689655172415 42.445379310344826 120.01379310344828 C 41.457655172413794 119.87268965517242 40.469931034482755 119.73158620689655 39.452275862068966 119.58620689655173 C 39.59337931034484 119.02179310344829 39.734482758620686 118.45737931034483 39.879862068965515 117.87586206896552 Z" fill="#818cf8" />
  <path id="path-41" d="M 8.66606896551724 74.6896551724138 C 9.521241379310343 75.5448275862069 9.521241379310343 75.5448275862069 9.576827586206893 76.66937931034482 C 9.555448275862066 77.00289655172415 9.538344827586208 77.33641379310345 9.521241379310343 77.68275862068965 C 8.815724137931031 77.68275862068965 8.110206896551723 77.68275862068965 7.383310344827585 77.68275862068965 C 7.383310344827585 76.83613793103449 7.383310344827585 75.98951724137932 7.383310344827585 75.11724137931034 C 7.806620689655169 74.97613793103449 8.229931034482759 74.83503448275862 8.66606896551724 74.6896551724138 Z" fill="#a5b4fc" />
  <path id="path-42" d="M 28.33503448275862 10.551724137931036 C 28.75834482758621 10.692827586206903 29.181655172413787 10.833931034482758 29.617793103448275 10.979310344827587 C 29.93848275862069 11.83448275862069 29.93848275862069 11.83448275862069 30.045379310344828 12.689655172413794 C 29.617793103448275 13.117241379310345 29.617793103448275 13.117241379310345 28.309379310344827 13.142896551724139 C 27.685103448275857 13.130068965517243 27.685103448275857 13.130068965517243 27.052275862068964 13.117241379310345 C 27.85186206896552 11.034896551724136 27.85186206896552 11.034896551724136 28.33503448275862 10.551724137931036 Z" fill="#e0e7ff" />
  <path id="path-43" d="M 6.528137931034482 55.44827586206897 C 7.374758620689655 55.657793103448284 7.374758620689655 55.657793103448284 8.238482758620687 55.87586206896552 C 8.238482758620687 56.722482758620686 8.238482758620687 57.56910344827587 8.238482758620687 58.44137931034483 C 7.532965517241376 58.300275862068965 6.827448275862069 58.15917241379311 6.1005517241379295 58.01379310344828 C 6.2416551724137905 57.16717241379311 6.3827586206896525 56.32055172413793 6.528137931034482 55.44827586206897 Z" fill="#818cf8" />
  <path id="path-44" d="M 9.093655172413792 34.92413793103449 C 9.375862068965514 35.06524137931035 9.658068965517238 35.20634482758621 9.948827586206896 35.351724137931036 C 10.21820689655172 36.660137931034484 10.21820689655172 36.660137931034484 10.376413793103447 37.91724137931035 C 8.345379310344827 37.59655172413793 8.345379310344827 37.59655172413793 7.383310344827585 36.63448275862069 C 7.94772413793103 36.070068965517244 8.51213793103448 35.5056551724138 9.093655172413792 34.92413793103449 Z" fill="#c7d2fe" />
  <path id="path-45" d="M 18.92813793103448 19.958620689655174 C 19.492551724137925 19.958620689655174 20.056965517241373 19.958620689655174 20.63848275862069 19.958620689655174 C 20.779586206896557 20.805241379310342 20.92068965517241 21.65186206896552 21.06606896551724 22.524137931034485 C 20.360551724137927 22.524137931034485 19.655034482758616 22.524137931034485 18.92813793103448 22.524137931034485 C 18.92813793103448 21.677517241379316 18.92813793103448 20.830896551724134 18.92813793103448 19.958620689655174 Z" fill="#c7d2fe" />
  <path id="path-46" d="M 44.15572413793104 38.77241379310345 C 44.2968275862069 39.336827586206894 44.43793103448276 39.90124137931034 44.58331034482759 40.48275862068966 C 43.73668965517242 40.90606896551725 43.73668965517242 40.90606896551725 42.87296551724138 41.33793103448276 C 42.590758620689655 40.77351724137932 42.308551724137935 40.20910344827587 42.01779310344828 39.62758620689655 C 43.30055172413793 38.77241379310345 43.30055172413793 38.77241379310345 44.15572413793104 38.77241379310345 Z" fill="#c7d2fe" />
  <path id="path-47" d="M 56.983310344827586 123.86206896551725 C 59.06993103448276 124.61034482758622 59.06993103448276 124.61034482758622 59.5488275862069 125.57241379310345 C 58.70220689655173 125.71351724137931 57.85558620689655 125.85462068965519 56.983310344827586 126 C 56.983310344827586 125.2944827586207 56.983310344827586 124.58896551724138 56.983310344827586 123.86206896551725 Z" fill="#6366f1" />
  <path id="path-48" d="M 63.397103448275864 96.06896551724138 C 64.24372413793103 96.06896551724138 65.09034482758622 96.06896551724138 65.96262068965518 96.06896551724138 C 65.21434482758622 98.15558620689656 65.21434482758622 98.15558620689656 64.25227586206897 98.63448275862069 C 63.97006896551724 97.78786206896551 63.68786206896552 96.94124137931036 63.397103448275864 96.06896551724138 Z" fill="#a5b4fc" />
  <path id="path-49" d="M 10.376413793103447 84.09655172413794 C 11.364137931034483 84.09655172413794 12.351862068965518 84.09655172413794 13.36951724137931 84.09655172413794 C 12.732413793103444 84.94317241379312 12.732413793103444 84.94317241379312 12.086758620689654 85.80689655172414 C 11.52234482758621 85.66579310344828 10.957931034482758 85.52468965517241 10.376413793103447 85.37931034482759 C 10.376413793103447 84.956 10.376413793103447 84.5326896551724 10.376413793103447 84.09655172413794 Z" fill="#4f46e5" />
</svg>